<?xml version="1.0" encoding="UTF-8"?>
<svg version="1.1" xmlns="http://www.w3.org/2000/svg" width="818" height="198">
<path d="M0 0 C0.66 0 1.32 0 2 0 C2.02685412 2.31243792 2.04632841 4.6249627 2.0625 6.9375 C2.07410156 8.22527344 2.08570313 9.51304688 2.09765625 10.83984375 C2 14 2 14 1 15 C2.32 15.33 3.64 15.66 5 16 C5 16.99 5 17.98 5 19 C3.35 19 1.7 19 0 19 C0.30887453 21.43800966 0.62194662 23.87535367 0.9375 26.3125 C1.06801758 27.34793945 1.06801758 27.34793945 1.20117188 28.40429688 C1.59210135 31.40142288 2.0415004 34.12450119 3 37 C5.56042066 38.03038956 5.56042066 38.03038956 8.5625 38.6875 C10.08037109 39.06455078 10.08037109 39.06455078 11.62890625 39.44921875 C12.41136719 39.63097656 13.19382812 39.81273437 14 40 C14.185625 38.6078125 14.185625 38.6078125 14.375 37.1875 C15 34 15 34 17 31 C18.98 31.495 18.98 31.495 21 32 C20.32829194 35.8063457 19.27253436 39.35206816 18 43 C20.31 43.33 22.62 43.66 25 44 C26.89865603 41.02819057 28.35455571 38.48539917 29 35 C29.99 35 30.98 35 32 35 C33.60725635 38.21451269 33.05748185 41.43612536 33 45 C33.66 44.67 34.32 44.34 35 44 C35.65374742 41.45293768 35.65374742 41.45293768 36.0625 38.5 C36.90534351 33.09465649 36.90534351 33.09465649 38 32 C40.14394519 31.9008243 42.29126732 31.8702985 44.4375 31.875 C46.19900391 31.87113281 46.19900391 31.87113281 47.99609375 31.8671875 C51 32 51 32 53 33 C52.38545304 36.99455527 50.29353263 39.74466336 48 43 C50.96836334 44.37045508 50.96836334 44.37045508 53.5625 42.8125 C56.10985241 40.91831488 56.66162687 39.76597113 58 37 C61.22635795 34.69545861 64.12015747 34.74696679 68 35 C68.66 35.33 69.32 35.66 70 36 C69.67 36.99 69.34 37.98 69 39 C67.865625 39.2475 66.73125 39.495 65.5625 39.75 C64.386875 40.1625 63.21125 40.575 62 41 C60.45913678 44.51400668 60.45913678 44.51400668 60 48 C67.85766079 47.68942052 72.34297726 46.65702274 78 41 C78.32342813 38.00623228 78.32342813 38.00623228 78.30859375 34.48828125 C78.33373047 33.17279297 78.35886719 31.85730469 78.38476562 30.50195312 C78.41337225 28.41318027 78.43739157 26.32447899 78.45629883 24.2355957 C78.47815195 22.21526222 78.51762505 20.19580501 78.55859375 18.17578125 C78.57204834 16.96833252 78.58550293 15.76088379 78.59936523 14.5168457 C79.07313354 10.3580203 80.05695575 7.69737869 82 4 C84.625 3 84.625 3 87 3 C88.55695914 4.55695914 88.16981886 6.01979206 88.1875 8.1875 C88.10339717 16.52569468 87.42691564 25.32543683 84 33 C84.804375 32.814375 85.60875 32.62875 86.4375 32.4375 C87.283125 32.293125 88.12875 32.14875 89 32 C90 33 90 33 90.09765625 35.06640625 C90.08025391 36.30197266 90.08025391 36.30197266 90.0625 37.5625 C90.05347656 38.38878906 90.04445313 39.21507812 90.03515625 40.06640625 C90.01775391 41.02353516 90.01775391 41.02353516 90 42 C91.96161898 41.81266183 91.96161898 41.81266183 94 41 C95.13070444 39.15272433 95.13070444 39.15272433 95.75 36.9375 C96.11351562 35.83728516 96.11351562 35.83728516 96.484375 34.71484375 C96.65453125 34.14894531 96.8246875 33.58304688 97 33 C97.99 33.33 98.98 33.66 100 34 C100.91039125 36.28697319 101.45841999 38.58315365 102.05859375 40.96875 C102.81051603 43.17470788 102.81051603 43.17470788 104.97265625 43.87890625 C107.1555056 44.23361197 107.1555056 44.23361197 109 42.4375 C111.12536045 39.94774161 111.12536045 39.94774161 113.0625 36.75 C114.0215625 35.38875 114.0215625 35.38875 115 34 C115.99 34 116.98 34 118 34 C117.67 34.99 117.34 35.98 117 37 C116.83322718 40.58343976 116.83322718 40.58343976 117 44 C118.18424326 45.41577477 118.18424326 45.41577477 121.5625 45.0625 C123.2640625 45.0315625 123.2640625 45.0315625 125 45 C125.99 42.03 125.99 42.03 127 39 C124.69 38.34 122.38 37.68 120 37 C119.67 35.35 119.34 33.7 119 32 C121.91708924 30.01637931 123.12380904 30.0123809 126.75 30.375 C127.8225 30.58125 128.895 30.7875 130 31 C131.0625 33.375 131.0625 33.375 132 36 C131.67 36.66 131.34 37.32 131 38 C135.95 38 140.9 38 146 38 C146.33 38.66 146.66 39.32 147 40 C141.39 40 135.78 40 130 40 C129.67 41.65 129.34 43.3 129 45 C127.5625 47.375 127.5625 47.375 125 49 C121.5998447 49.03202658 118.3442439 48.58715733 115 48 C114.67 46.68 114.34 45.36 114 44 C113.505 44.495 113.01 44.99 112.5 45.5 C108.74351164 47.75389302 106.35420619 47.48380069 102 47 C100 45.125 100 45.125 99 43 C99 42.34 99 41.68 99 41 C98.34 41 97.68 41 97 41 C96.34 42.32 95.68 43.64 95 45 C89.25 45.125 89.25 45.125 87 44 C87 41.03 87 38.06 87 35 C85.68 35.66 84.36 36.32 83 37 C82.18415432 40.05908413 82.18415432 40.05908413 82 43 C81.01 43 80.02 43 79 43 C78.67 43.99 78.34 44.98 78 46 C73.21721857 50.43312639 68.58278415 51.54145578 62.19921875 51.37109375 C60 51 60 51 57 49 C56.67 48.01 56.34 47.02 56 46 C55.06027344 46.23396484 55.06027344 46.23396484 54.1015625 46.47265625 C53.28429687 46.66730469 52.46703125 46.86195313 51.625 47.0625 C50.81289063 47.25972656 50.00078125 47.45695312 49.1640625 47.66015625 C47 48 47 48 45 47 C44.67386382 42.32538149 45.29417212 39.83325617 48 36 C45.36 35.67 42.72 35.34 40 35 C39.94392578 36.03060547 39.94392578 36.03060547 39.88671875 37.08203125 C39.82097656 37.98308594 39.75523437 38.88414063 39.6875 39.8125 C39.62949219 40.70582031 39.57148438 41.59914062 39.51171875 42.51953125 C38.93159018 45.33160486 38.31627811 46.33832222 36 48 C33.32520673 47.73904456 31.39904859 47.1995243 29 46 C28.01 46.66 27.02 47.32 26 48 C17.4491018 47.59281437 17.4491018 47.59281437 14 44 C14 43.34 14 42.68 14 42 C13.40832031 41.96261719 12.81664062 41.92523438 12.20703125 41.88671875 C7.39332549 41.48623099 3.99158223 40.9614965 0 38 C-0.268125 39.0725 -0.53625 40.145 -0.8125 41.25 C-2.56242413 46.7760762 -2.56242413 46.7760762 -5 49 C-7.99741879 49.35054055 -10.57939356 49.46907307 -13.5625 49.375 C-14.34302734 49.37371094 -15.12355469 49.37242187 -15.92773438 49.37109375 C-21.71884586 49.28115414 -21.71884586 49.28115414 -24 47 C-24.39764263 45.01178687 -24.73775349 43.01055661 -25 41 C-25.39832031 41.56589844 -25.79664063 42.13179687 -26.20703125 42.71484375 C-26.73683594 43.44832031 -27.26664062 44.18179688 -27.8125 44.9375 C-28.33457031 45.66839844 -28.85664063 46.39929688 -29.39453125 47.15234375 C-31 49 -31 49 -34 50 C-36.26763574 50.14648082 -38.54032366 50.2209626 -40.8125 50.25 C-42.61654297 50.28867188 -42.61654297 50.28867188 -44.45703125 50.328125 C-48.46467838 49.95696474 -52.06979797 48.93020203 -55 46 C-55.59899708 41.33567844 -55.33533161 37.76455608 -53.4375 33.4375 C-51 31 -51 31 -47.6875 30.5 C-43.90840373 31.01241983 -40.61706987 31.81891596 -37 33 C-37 33.99 -37 34.98 -37 36 C-40.96 35.34 -44.92 34.68 -49 34 C-52.06380067 38.89730435 -52.06380067 38.89730435 -52 44 C-48.44249069 45.57537618 -45.30842224 46.38390443 -41.4375 46.75 C-40.04337891 46.89695312 -40.04337891 46.89695312 -38.62109375 47.046875 C-35.72600557 46.99509995 -34.37855367 46.62265738 -32 45 C-30.42477627 43.20230417 -30.42477627 43.20230417 -29.0625 41.125 C-26.22021392 37.18016466 -23.43506759 34.25680908 -19.0625 32 C-15.2687705 32 -13.65952451 33.40091923 -11 36 C-10.480396 39.38803018 -10.64957884 42.59961694 -11 46 C-7.36603352 44.91799511 -7.36603352 44.91799511 -4.86181641 42.24707031 C-3.86902598 39.65850286 -3.68251594 37.56545706 -3.5859375 34.796875 C-3.54726563 33.8171875 -3.50859375 32.8375 -3.46875 31.828125 C-3.4378125 30.81234375 -3.406875 29.7965625 -3.375 28.75 C-3.33632813 27.71875 -3.29765625 26.6875 -3.2578125 25.625 C-3.16368744 23.08362337 -3.08076069 20.54183642 -3 18 C-6.3 18 -9.6 18 -13 18 C-13 17.34 -13 16.68 -13 16 C-11.93458984 15.92652344 -11.93458984 15.92652344 -10.84765625 15.8515625 C-9.46900391 15.73941406 -9.46900391 15.73941406 -8.0625 15.625 C-7.14597656 15.55539063 -6.22945313 15.48578125 -5.28515625 15.4140625 C-4.53105469 15.27742188 -3.77695312 15.14078125 -3 15 C-1.25544201 11.51088401 -1.53762734 7.50258205 -1.28125 3.65234375 C-1 1 -1 1 0 0 Z M84 7 C82.33325679 9.91824244 81.7567992 11.97594379 81.8046875 15.328125 C81.81113281 16.12734375 81.81757813 16.9265625 81.82421875 17.75 C81.84097656 18.575 81.85773438 19.4 81.875 20.25 C81.88402344 21.09046875 81.89304687 21.9309375 81.90234375 22.796875 C81.92584183 24.86470604 81.96171092 26.93238995 82 29 C85.31639581 24.02540629 85.12219877 18.97547992 85.0625 13.125 C85.05347656 11.97257812 85.04445313 10.82015625 85.03515625 9.6328125 C85.02355469 8.76398438 85.01195312 7.89515625 85 7 C84.67 7 84.34 7 84 7 Z M123 33 C122.67 33.66 122.34 34.32 122 35 C123.98 35.66 125.96 36.32 128 37 C128 35.68 128 34.36 128 33 C126.35 33 124.7 33 123 33 Z M-18 35 C-20.15305957 38.85756507 -21.39253254 41.55129785 -21 46 C-18.525 46.495 -18.525 46.495 -16 47 C-14.48245997 44.58978936 -13.97683094 43.31664378 -14.1875 40.4375 C-15.04972947 37.85081159 -15.92195383 36.71664683 -18 35 Z " fill="#000000" transform="translate(353,87)"/>
<path d="M0 0 C6.75 0.75 6.75 0.75 9 3 C9 8.65853038 7.223372 11.50850864 3.5703125 15.51953125 C2 17 2 17 -1 19 C-1.84269363 21.36132879 -2.54008559 23.64829109 -3.1875 26.0625 C-5.02154579 32.39862561 -7.31067299 38.34648796 -10.125 44.3125 C-10.46168701 45.0351001 -10.79837402 45.7577002 -11.14526367 46.50219727 C-13.6111221 51.61740569 -13.6111221 51.61740569 -15.61669922 53.59057617 C-17.2334873 54.90875645 -17.2334873 54.90875645 -17 57 C-12.11469709 57.33350061 -12.11469709 57.33350061 -7.625 55.6875 C-5.75789029 53.99077259 -5.75789029 53.99077259 -5 51 C-4.01 51 -3.02 51 -2 51 C-2 53.64 -2 56.28 -2 59 C3.02254631 59.2954439 5.89542386 58.98514628 10 56 C7.69 55.34 5.38 54.68 3 54 C2.06934867 51.39417629 1.85082593 50.35801776 2.9375 47.75 C3.4634375 46.88375 3.4634375 46.88375 4 46 C10.625 45.75 10.625 45.75 14 48 C14.1875 50.625 14.1875 50.625 14 53 C16.40575607 50.81482901 17.79535581 48.74080329 19.1875 45.8125 C19.53167969 45.09707031 19.87585938 44.38164063 20.23046875 43.64453125 C20.61138672 42.83048828 20.61138672 42.83048828 21 42 C23.33294775 41.95758277 25.66702567 41.95907063 28 42 C29.81298005 43.81298005 29.67555005 46.61181698 30.0625 49.0625 C30.32740234 50.71958984 30.32740234 50.71958984 30.59765625 52.41015625 C30.73042969 53.26480469 30.86320312 54.11945313 31 55 C33.64 55 36.28 55 39 55 C38.67 54.34 38.34 53.68 38 53 C37.7132351 49.70220369 37.69550831 47.60898338 39.1875 44.625 C41 43 41 43 43.6875 42.75 C44.450625 42.8325 45.21375 42.915 46 43 C47.1875 44.5 47.1875 44.5 48 47 C47.27101296 49.78824238 46.1843275 52.37665092 45 55 C47.92699944 54.6479778 48.91341166 54.09261338 50.96484375 51.8984375 C52.28149128 50.21417155 53.59398946 48.52665378 54.90234375 46.8359375 C57 45 57 45 59.69140625 45.1015625 C62 46 62 46 63 48 C63.5775 47.01 64.155 46.02 64.75 45 C65.4925 44.01 66.235 43.02 67 42 C68.32 42 69.64 42 71 42 C72.81191882 43.81191882 72.4723513 46.72351299 72.71875 49.1875 C72.81998043 51.0167533 72.81998043 51.0167533 74 52 C74.29245605 51.52578613 74.58491211 51.05157227 74.88623047 50.56298828 C76.21298933 48.4152283 77.54393996 46.27009676 78.875 44.125 C79.33519531 43.37863281 79.79539062 42.63226563 80.26953125 41.86328125 C80.71425781 41.14785156 81.15898437 40.43242188 81.6171875 39.6953125 C82.02565918 39.03547363 82.43413086 38.37563477 82.85498047 37.69580078 C84 36 84 36 86 34 C89.0625 33.8125 89.0625 33.8125 92 34 C93.53209716 35.53209716 93.20614547 36.93190053 93.25 39.0625 C93.212801 43.71237492 92.45155766 49.54844234 89 53 C97.68673701 52.91613343 97.68673701 52.91613343 105 49 C106.7263225 45.49412039 107.76243963 41.79752411 108.875 38.0625 C110 36 110 36 112.125 34.875 C115.93200944 35.04052215 117.84408234 36.66746906 120.9296875 38.78515625 C123.96805031 40.56804462 126.51554578 40.78222161 130 41 C130 41.66 130 42.32 130 43 C127.69 43 125.38 43 123 43 C123.1546875 44.3303125 123.1546875 44.3303125 123.3125 45.6875 C123 49 123 49 120.8125 51.875 C118 54 118 54 115.5 54.5 C112.53450067 53.90690013 110.56990613 52.5554695 108 51 C107.01 51.33 106.02 51.66 105 52 C105 52.66 105 53.32 105 54 C104.01 54.33 103.02 54.66 102 55 C100.19409055 58.31516026 98.61386229 61.66603991 97.04882812 65.09765625 C93.71785749 72.14468082 93.71785749 72.14468082 90 74 C87.26286305 74.37460816 84.77974416 74.13898721 82 74 C82.18296605 66.86432406 87.17743746 61.82256254 92 57 C89.36 56.67 86.72 56.34 84 56 C84 53 84 53 86 50 C86.66 50 87.32 50 88 50 C88.66 45.71 89.32 41.42 90 37 C85.80295468 39.09852266 85.14201841 39.87004759 82.9375 43.75 C82.42316406 44.64074219 81.90882813 45.53148437 81.37890625 46.44921875 C80.29919099 48.44653904 79.31726041 50.49677526 78.375 52.5625 C77 55 77 55 75.0625 56.125 C73 56 73 56 70.8125 54.4375 C68.69067447 51.5840105 68.3185557 49.50411265 68 46 C65.42974154 50.2837641 63.41292095 54.1725201 62 59 C61.34 59 60.68 59 60 59 C60 55.37 60 51.74 60 48 C59.319375 48.70125 58.63875 49.4025 57.9375 50.125 C57.47472656 50.57359375 57.01195312 51.0221875 56.53515625 51.484375 C55.48509925 52.52107249 54.47279447 53.59704314 53.49609375 54.703125 C50.88966127 57.39120476 49.17611992 58.91500018 45.3515625 59.19140625 C42.52616491 58.93982975 39.79071072 58.50142372 37 58 C35.700625 57.938125 34.40125 57.87625 33.0625 57.8125 C30 57 30 57 27.625 54.3125 C26.04500543 51.09174185 25.33827856 48.55192491 25 45 C24.01 45 23.02 45 22 45 C21.79503906 45.63808594 21.59007813 46.27617188 21.37890625 46.93359375 C21.10949219 47.75988281 20.84007812 48.58617187 20.5625 49.4375 C20.29566406 50.26121094 20.02882812 51.08492187 19.75390625 51.93359375 C19 54 19 54 18 55 C16.33382885 55.04063832 14.66611905 55.042721 13 55 C12.896875 55.598125 12.79375 56.19625 12.6875 56.8125 C11.86278703 59.43658672 11.19167685 60.34105484 9 62 C6.1875 62.3984375 6.1875 62.3984375 3 62.375 C1.948125 62.38273437 0.89625 62.39046875 -0.1875 62.3984375 C-3.26153012 61.9629499 -4.15341264 61.42364591 -6 59 C-6.515625 59.350625 -7.03125 59.70125 -7.5625 60.0625 C-11.80608433 61.69464782 -15.809602 60.39679933 -20 59 C-21.77133588 60.1375032 -21.77133588 60.1375032 -23.4375 61.8125 C-26.72074445 64.90477273 -29.35721717 66.75001131 -33.875 67.4375 C-37.2217203 66.96895916 -39.34586066 66.06747497 -41.859375 63.765625 C-43.80289743 60.75715877 -43.63342486 57.7989267 -43.6015625 54.3046875 C-43 52 -43 52 -41.21875 50.2265625 C-37.47311063 48.15590975 -34.16138219 48.27963709 -30 49 C-26.50161642 50.40129968 -23.25118045 52.09951873 -20 54 C-15.97781451 49.56551759 -13.8136567 44.66747699 -11.4375 39.25 C-11.05142578 38.3940625 -10.66535156 37.538125 -10.26757812 36.65625 C-7.8401212 31.19757343 -5.77411833 25.70419305 -4 20 C-4.6084375 20.31710938 -5.216875 20.63421875 -5.84375 20.9609375 C-12.0386178 23.94614553 -19.29455004 23.09765218 -26 23 C-26.33 22.01 -26.66 21.02 -27 20 C-26.31035156 20.02320312 -25.62070313 20.04640625 -24.91015625 20.0703125 C-18.61595063 20.19118888 -13.06698662 19.64589538 -7 18 C-5.66707533 17.66503626 -4.33385826 17.33122655 -3 17 C-2.86722656 15.94039062 -2.73445313 14.88078125 -2.59765625 13.7890625 C-2.41946125 12.40101721 -2.2410654 11.01299769 -2.0625 9.625 C-1.97548828 8.92632812 -1.88847656 8.22765625 -1.79882812 7.5078125 C-1.11328125 2.2265625 -1.11328125 2.2265625 0 0 Z M1 3 C0.67 6.96 0.34 10.92 0 15 C2.64752004 12.42215154 4.94432065 10.08351902 7 7 C7 6.01 7 5.02 7 4 C4.03 3.505 4.03 3.505 1 3 Z M112 38 C112.33 38.66 112.66 39.32 113 40 C114.32 39.67 115.64 39.34 117 39 C115.35 38.67 113.7 38.34 112 38 Z M110 42 C110.26393501 45.43230448 110.26393501 45.43230448 111 49 C113.76988076 51.31543207 113.76988076 51.31543207 116.625 50.6875 C118.93501965 50.2258486 118.93501965 50.2258486 120 49 C120.04080783 47.00041636 120.04254356 44.99954746 120 43 C116.7 42.67 113.4 42.34 110 42 Z M42 46 C41.67 48.31 41.34 50.62 41 53 C42.89213369 50.61426621 44.02391783 48.92824652 45 46 C44.01 46 43.02 46 42 46 Z M5 49 C5.33 49.99 5.66 50.98 6 52 C7.65 52.33 9.3 52.66 11 53 C11 51.68 11 50.36 11 49 C9.02 49 7.04 49 5 49 Z M-41 54 C-41.41746608 57.12635209 -41.41746608 57.12635209 -41 60 C-39.02 60.99 -39.02 60.99 -37 62 C-37 62.66 -37 63.32 -37 64 C-34.79561167 64.87754191 -34.79561167 64.87754191 -32 65 C-28.86875539 63.3015039 -28.86875539 63.3015039 -26 61 C-25.21625 60.4225 -24.4325 59.845 -23.625 59.25 C-23.08875 58.8375 -22.5525 58.425 -22 58 C-22.67543045 54.97937072 -22.67543045 54.97937072 -24.671875 53.83203125 C-30.75600053 50.84715012 -35.31481505 49.12698433 -41 54 Z M95 58 C94.7525 58.61875 94.505 59.2375 94.25 59.875 C93 62 93 62 91.125 62.875 C87.98890312 64.53528659 86.7575093 66.98712692 85 70 C85 70.66 85 71.32 85 72 C88.38405002 71.71799583 89.72125596 71.28694239 92.125 68.8125 C95.6595586 63.7965023 95.6595586 63.7965023 97 58 C96.34 58 95.68 58 95 58 Z " fill="#000000" transform="translate(97,70)"/>
<path d="M0 0 C7.11111111 -0.35555556 7.11111111 -0.35555556 10.5 1 C12.35875419 3.47833892 12.65689267 5.45179099 12.55078125 8.5234375 C11.84231161 11.70903859 10.38283699 14.14290831 8.8125 17 C5.52890257 23.55195774 6.08812205 27.51272457 7.75561523 34.31152344 C9.31258575 40.71439866 9.18929615 45.32414473 5.734375 51.125 C2.02558604 55.13450157 -4.32790717 55.77361997 -9.58203125 56.21875 C-12.58995576 56.25865613 -15.19331908 56.27399599 -18.05859375 55.30078125 C-18.69925781 55.20152344 -19.33992188 55.10226563 -20 55 C-21.71547848 56.18519909 -21.71547848 56.18519909 -23.125 57.9375 C-24.04956579 58.98901394 -25.00282632 60.01707166 -26 61 C-26.66 61 -27.32 61 -28 61 C-26.83618896 58.38142517 -25.8086623 56.8086623 -23.75 54.75 C-21.77227218 52.26435178 -21.77227218 52.26435178 -22.1875 50.04296875 C-22.55408714 48.6708127 -22.96396679 47.30928357 -23.421875 45.96484375 C-24 44 -24 44 -24 40 C-18.88208358 39.89337674 -14.07071901 40.28832014 -9 41 C-8.41992188 40.02160156 -8.41992188 40.02160156 -7.828125 39.0234375 C-7.30734375 38.14945313 -6.7865625 37.27546875 -6.25 36.375 C-5.70859375 35.45203125 -5.1671875 34.5290625 -4.609375 33.578125 C-3 31 -3 31 -0.5 28.125 C1.59010703 23.77061035 0.56524708 20.80665924 -0.41015625 16.18359375 C-1.3321901 11.20705345 -2.33294266 4.66588532 0 0 Z M2 3 C1.60195155 12.20692462 1.60195155 12.20692462 4 21 C8.39984978 15.80017754 9.3956034 10.7252578 9 4 C7.87465895 2.64381501 7.87465895 2.64381501 4.9375 2.9375 C3.968125 2.958125 2.99875 2.97875 2 3 Z M2 27 C0.43707822 29.48176616 -1.07594152 31.97307823 -2.5625 34.5 C-2.98724609 35.21542969 -3.41199219 35.93085937 -3.84960938 36.66796875 C-4.90301574 38.44337273 -5.95192284 40.22144482 -7 42 C-6.34 42.33 -5.68 42.66 -5 43 C-5 43.66 -5 44.32 -5 45 C-6.0828125 45.12375 -6.0828125 45.12375 -7.1875 45.25 C-11.40560818 46.37482885 -13.96614827 48.96614827 -17 52 C-11.26134909 54.42298594 -7.49196018 53.74744027 -1.55078125 52.1171875 C1.37237217 50.83690897 2.96121875 49.43917395 5 47 C7.39657011 39.81028968 5.64784597 33.80874678 3 27 C2.67 27 2.34 27 2 27 Z M-20 43 C-20 44.98 -20 46.96 -20 49 C-19.01 49.495 -19.01 49.495 -18 50 C-16.02 48.68 -14.04 47.36 -12 46 C-14.5654594 43.4345406 -16.47686668 43.45953913 -20 43 Z " fill="#000000" transform="translate(284,82)"/>
<path d="M0 0 C0.99 0 1.98 0 3 0 C3 0.99 3 1.98 3 3 C2.01 3 1.02 3 0 3 C0 2.01 0 1.02 0 0 Z " fill="#000000" transform="translate(453,109)"/>
</svg>
