<svg id="visual" viewBox="0 0 960 540" width="960" height="540" xmlns="http://www.w3.org/2000/svg" xmlns:xlink="http://www.w3.org/1999/xlink" version="1.1"><rect x="0" y="0" width="960" height="540" fill="#202731"></rect><path d="M668 540L676.3 525C684.7 510 701.3 480 697.3 450C693.3 420 668.7 390 660.2 360C651.7 330 659.3 300 673.3 270C687.3 240 707.7 210 709.7 180C711.7 150 695.3 120 686.7 90C678 60 677 30 676.5 15L676 0L960 0L960 15C960 30 960 60 960 90C960 120 960 150 960 180C960 210 960 240 960 270C960 300 960 330 960 360C960 390 960 420 960 450C960 480 960 510 960 525L960 540Z" fill="#00acc1"></path><path d="M755 540L745.2 525C735.3 510 715.7 480 710.3 450C705 420 714 390 716.7 360C719.3 330 715.7 300 718 270C720.3 240 728.7 210 740 180C751.3 150 765.7 120 772.3 90C779 60 778 30 777.5 15L777 0L960 0L960 15C960 30 960 60 960 90C960 120 960 150 960 180C960 210 960 240 960 270C960 300 960 330 960 360C960 390 960 420 960 450C960 480 960 510 960 525L960 540Z" fill="#00a0cc"></path><path d="M730 540L743.5 525C757 510 784 480 795.7 450C807.3 420 803.7 390 802.5 360C801.3 330 802.7 300 789.7 270C776.7 240 749.3 210 736.7 180C724 150 726 120 726.8 90C727.7 60 727.3 30 727.2 15L727 0L960 0L960 15C960 30 960 60 960 90C960 120 960 150 960 180C960 210 960 240 960 270C960 300 960 330 960 360C960 390 960 420 960 450C960 480 960 510 960 525L960 540Z" fill="#0091d3"></path><path d="M806 540L806 525C806 510 806 480 807.8 450C809.7 420 813.3 390 817.8 360C822.3 330 827.7 300 822.7 270C817.7 240 802.3 210 801.3 180C800.3 150 813.7 120 821.8 90C830 60 833 30 834.5 15L836 0L960 0L960 15C960 30 960 60 960 90C960 120 960 150 960 180C960 210 960 240 960 270C960 300 960 330 960 360C960 390 960 420 960 450C960 480 960 510 960 525L960 540Z" fill="#0080d4"></path><path d="M809 540L815.7 525C822.3 510 835.7 480 838 450C840.3 420 831.7 390 825.7 360C819.7 330 816.3 300 823.8 270C831.3 240 849.7 210 860 180C870.3 150 872.7 120 868.7 90C864.7 60 854.3 30 849.2 15L844 0L960 0L960 15C960 30 960 60 960 90C960 120 960 150 960 180C960 210 960 240 960 270C960 300 960 330 960 360C960 390 960 420 960 450C960 480 960 510 960 525L960 540Z" fill="#176cd0"></path><path d="M895 540L891.2 525C887.3 510 879.7 480 878.7 450C877.7 420 883.3 390 880 360C876.7 330 864.3 300 863.8 270C863.3 240 874.7 210 875.3 180C876 150 866 120 862.8 90C859.7 60 863.3 30 865.2 15L867 0L960 0L960 15C960 30 960 60 960 90C960 120 960 150 960 180C960 210 960 240 960 270C960 300 960 330 960 360C960 390 960 420 960 450C960 480 960 510 960 525L960 540Z" fill="#3856c6"></path><path d="M934 540L927.3 525C920.7 510 907.3 480 903.3 450C899.3 420 904.7 390 909.8 360C915 330 920 300 917.8 270C915.7 240 906.3 210 904.5 180C902.7 150 908.3 120 913.2 90C918 60 922 30 924 15L926 0L960 0L960 15C960 30 960 60 960 90C960 120 960 150 960 180C960 210 960 240 960 270C960 300 960 330 960 360C960 390 960 420 960 450C960 480 960 510 960 525L960 540Z" fill="#543ab7"></path></svg>