<svg id="visual" viewBox="0 0 900 600" width="900" height="600" xmlns="http://www.w3.org/2000/svg" xmlns:xlink="http://www.w3.org/1999/xlink" version="1.1"><rect x="0" y="0" width="900" height="600" fill="#202731"></rect><path d="M0 369L53 389L106 380L159 400L212 432L265 435L318 379L371 372L424 424L476 375L529 439L582 404L635 401L688 412L741 407L794 403L847 422L900 439L900 601L847 601L794 601L741 601L688 601L635 601L582 601L529 601L476 601L424 601L371 601L318 601L265 601L212 601L159 601L106 601L53 601L0 601Z" fill="#68bbe3"></path><path d="M0 417L53 414L106 427L159 452L212 457L265 447L318 397L371 427L424 418L476 417L529 424L582 398L635 448L688 404L741 414L794 418L847 401L900 406L900 601L847 601L794 601L741 601L688 601L635 601L582 601L529 601L476 601L424 601L371 601L318 601L265 601L212 601L159 601L106 601L53 601L0 601Z" fill="#59add9"></path><path d="M0 447L53 447L106 451L159 436L212 429L265 479L318 464L371 468L424 426L476 467L529 441L582 458L635 437L688 475L741 427L794 464L847 439L900 478L900 601L847 601L794 601L741 601L688 601L635 601L582 601L529 601L476 601L424 601L371 601L318 601L265 601L212 601L159 601L106 601L53 601L0 601Z" fill="#4b9fd0"></path><path d="M0 484L53 451L106 463L159 499L212 500L265 464L318 486L371 486L424 480L476 488L529 480L582 453L635 496L688 506L741 477L794 480L847 476L900 466L900 601L847 601L794 601L741 601L688 601L635 601L582 601L529 601L476 601L424 601L371 601L318 601L265 601L212 601L159 601L106 601L53 601L0 601Z" fill="#3d92c6"></path><path d="M0 487L53 487L106 507L159 510L212 495L265 509L318 518L371 512L424 488L476 506L529 511L582 481L635 484L688 490L741 519L794 494L847 479L900 480L900 601L847 601L794 601L741 601L688 601L635 601L582 601L529 601L476 601L424 601L371 601L318 601L265 601L212 601L159 601L106 601L53 601L0 601Z" fill="#2f84bc"></path><path d="M0 537L53 537L106 545L159 528L212 534L265 547L318 513L371 540L424 515L476 536L529 507L582 524L635 505L688 535L741 543L794 547L847 527L900 526L900 601L847 601L794 601L741 601L688 601L635 601L582 601L529 601L476 601L424 601L371 601L318 601L265 601L212 601L159 601L106 601L53 601L0 601Z" fill="#2277b2"></path><path d="M0 538L53 543L106 528L159 562L212 568L265 542L318 544L371 545L424 538L476 571L529 534L582 562L635 567L688 539L741 539L794 529L847 553L900 566L900 601L847 601L794 601L741 601L688 601L635 601L582 601L529 601L476 601L424 601L371 601L318 601L265 601L212 601L159 601L106 601L53 601L0 601Z" fill="#1469a8"></path><path d="M0 553L53 577L106 580L159 564L212 556L265 553L318 587L371 555L424 563L476 569L529 592L582 572L635 564L688 565L741 590L794 593L847 586L900 553L900 601L847 601L794 601L741 601L688 601L635 601L582 601L529 601L476 601L424 601L371 601L318 601L265 601L212 601L159 601L106 601L53 601L0 601Z" fill="#055c9d"></path></svg>